<?xml version="1.0" encoding="UTF-8"?>
<!DOCTYPE svg PUBLIC "-//W3C//DTD SVG 1.1//EN" "http://www.w3.org/Graphics/SVG/1.1/DTD/svg11.dtd">
<svg xmlns="http://www.w3.org/2000/svg" version="1.1" width="1080px" height="1080px" style="shape-rendering:geometricPrecision; text-rendering:geometricPrecision; image-rendering:optimizeQuality; fill-rule:evenodd; clip-rule:evenodd" xmlns:xlink="http://www.w3.org/1999/xlink">
<g><path style="opacity:0.956" fill="#494949" d="M 867.5,465.5 C 875.507,465.334 883.507,465.5 891.5,466C 897.04,468.23 899.706,472.396 899.5,478.5C 899.509,485.32 896.176,489.153 889.5,490C 880.657,491.079 871.991,490.413 863.5,488C 862.789,486.745 861.956,485.579 861,484.5C 860.333,480.167 860.333,475.833 861,471.5C 862.494,468.686 864.66,466.686 867.5,465.5 Z"/></g>
<g><path style="opacity:0.964" fill="#494949" d="M 34.5,469.5 C 57.8429,469.167 81.1762,469.5 104.5,470.5C 107.235,480.934 103.568,488.101 93.5,492C 86.6451,493.035 79.9784,492.368 73.5,490C 63.7788,484.473 53.7788,479.473 43.5,475C 41.8333,474.333 40.1667,474.333 38.5,475C 37.144,478.653 38.144,481.653 41.5,484C 53.929,489.588 66.5956,494.588 79.5,499C 106.335,510.522 114.169,529.688 103,556.5C 96.7809,564.53 88.6142,569.363 78.5,571C 62.8294,573.867 48.4961,570.867 35.5,562C 23.0759,549.7 21.4093,536.2 30.5,521.5C 33.0809,518.752 36.0809,516.586 39.5,515C 26.978,505.104 23.1447,492.604 28,477.5C 29.4785,474.172 31.6452,471.506 34.5,469.5 Z M 44.5,519.5 C 58.3159,527.577 72.3159,535.41 86.5,543C 88.6667,545.167 90.8333,547.333 93,549.5C 95.8118,557.047 93.1452,561.38 85,562.5C 78.975,561.713 73.475,559.546 68.5,556C 58.7072,547.914 51.2072,538.081 46,526.5C 45.023,524.26 44.523,521.927 44.5,519.5 Z"/></g>
<g><path style="opacity:0.967" fill="#494949" d="M 464.5,469.5 C 465.5,469.5 466.5,469.5 467.5,469.5C 467.5,477.833 467.5,486.167 467.5,494.5C 469.167,494.5 470.833,494.5 472.5,494.5C 472.5,496.167 472.5,497.833 472.5,499.5C 470.833,499.5 469.167,499.5 467.5,499.5C 467.333,518.503 467.5,537.503 468,556.5C 468.785,559.529 469.951,562.362 471.5,565C 467.783,570.249 462.617,572.416 456,571.5C 445.259,572.132 437.926,567.466 434,557.5C 432.55,538.221 432.05,518.888 432.5,499.5C 430.833,499.5 429.167,499.5 427.5,499.5C 427.215,497.712 427.548,496.045 428.5,494.5C 439.617,490.447 449.617,484.613 458.5,477C 461.118,474.894 463.118,472.394 464.5,469.5 Z"/></g>
<g><path style="opacity:0.975" fill="#494949" d="M 474.5,469.5 C 486.167,469.5 497.833,469.5 509.5,469.5C 509.333,498.835 509.5,528.169 510,557.5C 510.892,560.284 512.058,562.95 513.5,565.5C 509.406,570.125 504.239,572.125 498,571.5C 485.786,571.95 478.12,566.283 475,554.5C 474.5,526.169 474.333,497.835 474.5,469.5 Z"/></g>
<g><path style="opacity:0.965" fill="#494949" d="M 632.5,469.5 C 655.742,469.173 678.908,469.506 702,470.5C 704.903,481.191 701.07,488.357 690.5,492C 685.833,492.667 681.167,492.667 676.5,492C 666.252,487.543 656.252,482.543 646.5,477C 643.724,475.963 640.89,475.13 638,474.5C 634.309,475.517 633.642,477.517 636,480.5C 637.873,482.709 640.04,484.542 642.5,486C 657.488,491.218 672.155,497.218 686.5,504C 702.333,513.501 708.499,527.334 705,545.5C 700.88,559.951 691.38,568.451 676.5,571C 662.797,573.179 649.797,571.179 637.5,565C 621.552,553.763 618.052,539.596 627,522.5C 629.592,519.238 632.759,516.738 636.5,515C 623.329,503.818 620.162,490.318 627,474.5C 628.73,472.598 630.563,470.931 632.5,469.5 Z M 641.5,518.5 C 655.781,527.604 670.448,536.104 685.5,544C 688.851,547.039 691.184,550.706 692.5,555C 690.972,559.52 687.805,562.02 683,562.5C 671.078,560.266 661.411,554.266 654,544.5C 647.957,536.746 643.79,528.08 641.5,518.5 Z"/></g>
<g><path style="opacity:0.976" fill="#494949" d="M 983.5,469.5 C 995.167,469.5 1006.83,469.5 1018.5,469.5C 1018.33,497.835 1018.5,526.169 1019,554.5C 1019.4,558.628 1020.9,562.294 1023.5,565.5C 1019.21,570.045 1013.87,572.045 1007.5,571.5C 996.011,572.347 988.511,567.347 985,556.5C 983.541,527.542 983.041,498.542 983.5,469.5 Z"/></g>
<g><path style="opacity:0.98" fill="#494949" d="M 249.5,492.5 C 255.526,491.676 260.693,493.342 265,497.5C 265.667,498.833 265.667,500.167 265,501.5C 260.953,516.037 256.453,530.37 251.5,544.5C 250.609,535.309 246.942,527.475 240.5,521C 237.007,519.996 233.841,520.496 231,522.5C 229.531,538.071 229.031,553.737 229.5,569.5C 217.5,569.5 205.5,569.5 193.5,569.5C 193.5,544.5 193.5,519.5 193.5,494.5C 205.5,494.5 217.5,494.5 229.5,494.5C 229.334,500.176 229.501,505.843 230,511.5C 233.112,501.553 239.612,495.219 249.5,492.5 Z"/></g>
<g><path style="opacity:0.963" fill="#494949" d="M 298.5,492.5 C 330.25,492.754 344.75,508.754 342,540.5C 339.367,557.132 329.867,567.298 313.5,571C 278.536,573.701 262.702,557.535 266,522.5C 270.372,505.288 281.205,495.288 298.5,492.5 Z M 303.5,496.5 C 305.776,496.756 306.943,498.09 307,500.5C 307.667,521.5 307.667,542.5 307,563.5C 305,568.833 303,568.833 301,563.5C 300.333,542.5 300.333,521.5 301,500.5C 301.48,498.867 302.313,497.534 303.5,496.5 Z"/></g>
<g><path style="opacity:0.963" fill="#494949" d="M 740.5,492.5 C 772.25,492.754 786.75,508.754 784,540.5C 781.367,557.132 771.867,567.298 755.5,571C 720.536,573.701 704.702,557.535 708,522.5C 712.372,505.288 723.205,495.288 740.5,492.5 Z M 745.5,496.5 C 747.776,496.756 748.943,498.09 749,500.5C 749.667,521.5 749.667,542.5 749,563.5C 747,568.833 745,568.833 743,563.5C 742.333,542.5 742.333,521.5 743,500.5C 743.48,498.867 744.313,497.534 745.5,496.5 Z"/></g>
<g><path style="opacity:0.953" fill="#494949" d="M 819.5,492.5 C 831.067,491.872 842.067,494.039 852.5,499C 854.017,500.685 855.684,502.185 857.5,503.5C 850.861,518.112 843.694,532.445 836,546.5C 834.736,538.245 833.736,529.912 833,521.5C 832.202,513.627 829.868,506.294 826,499.5C 820.94,496.125 817.606,497.458 816,503.5C 812.513,518.731 815.18,532.731 824,545.5C 834.97,555.371 845.137,554.704 854.5,543.5C 855.799,544.09 856.632,545.09 857,546.5C 857.701,560.155 851.201,568.321 837.5,571C 819.759,574.665 804.926,569.832 793,556.5C 783.418,540.736 783.085,524.736 792,508.5C 799.057,499.393 808.224,494.059 819.5,492.5 Z"/></g>
<g><path style="opacity:0.983" fill="#494949" d="M 111.5,494.5 C 129.88,494.067 148.214,494.567 166.5,496C 183.34,502.143 191.34,514.31 190.5,532.5C 188.878,559.448 174.545,571.781 147.5,569.5C 147.5,577.833 147.5,586.167 147.5,594.5C 135.5,594.5 123.5,594.5 111.5,594.5C 111.5,561.167 111.5,527.833 111.5,494.5 Z M 147.5,499.5 C 151.162,498.637 153.328,499.97 154,503.5C 154.667,521.833 154.667,540.167 154,558.5C 153.923,561.665 152.59,563.999 150,565.5C 149.228,565.355 148.561,565.022 148,564.5C 147.5,542.836 147.333,521.169 147.5,499.5 Z"/></g>
<g><path style="opacity:0.978" fill="#494949" d="M 345.5,494.5 C 357.833,494.5 370.167,494.5 382.5,494.5C 382.333,515.836 382.5,537.169 383,558.5C 384.679,561.699 386.679,562.033 389,559.5C 389.333,538.167 389.667,516.833 390,495.5C 402.086,494.512 414.253,494.178 426.5,494.5C 426.5,519.5 426.5,544.5 426.5,569.5C 414.167,569.5 401.833,569.5 389.5,569.5C 389.649,568.448 389.483,567.448 389,566.5C 380.428,571.226 371.261,572.726 361.5,571C 352.814,568.313 347.647,562.479 346,553.5C 345.5,533.836 345.333,514.169 345.5,494.5 Z"/></g>
<g><path style="opacity:0.951" fill="#494949" d="M 510.5,494.5 C 522.505,494.333 534.505,494.5 546.5,495C 553.627,507.419 560.627,519.919 567.5,532.5C 570.203,528.566 571.036,524.232 570,519.5C 567.18,513.863 563.847,508.53 560,503.5C 559.333,500.833 559.333,498.167 560,495.5C 570.752,494.513 581.585,494.18 592.5,494.5C 580.557,519.051 568.057,543.384 555,567.5C 554.673,573.677 557.173,578.511 562.5,582C 565.864,583.682 569.198,585.349 572.5,587C 566.661,595 560.661,602.833 554.5,610.5C 538.885,604.827 534.719,594.494 542,579.5C 544.833,576 547.667,572.5 550.5,569C 536.76,544.351 523.427,519.518 510.5,494.5 Z"/></g>
<g><path style="opacity:0.991" fill="#494949" d="M 861.5,494.5 C 873.833,494.5 886.167,494.5 898.5,494.5C 898.5,519.5 898.5,544.5 898.5,569.5C 886.167,569.5 873.833,569.5 861.5,569.5C 861.5,544.5 861.5,519.5 861.5,494.5 Z"/></g>
<g><path style="opacity:0.965" fill="#494949" d="M 931.5,494.5 C 947.5,494.5 963.5,494.5 979.5,494.5C 979.333,515.503 979.5,536.503 980,557.5C 980.892,560.284 982.058,562.95 983.5,565.5C 979.27,570.276 973.937,572.276 967.5,571.5C 961.264,572.143 955.764,570.476 951,566.5C 949.048,568.894 946.548,570.394 943.5,571C 916.074,573.082 902.074,560.248 901.5,532.5C 901.067,511.282 911.067,498.615 931.5,494.5 Z M 939.5,499.5 C 941.167,499.5 942.833,499.5 944.5,499.5C 944.667,520.836 944.5,542.169 944,563.5C 943.729,567.13 942.062,568.13 939,566.5C 938.667,565.167 938.333,563.833 938,562.5C 937.333,543.167 937.333,523.833 938,504.5C 938.352,502.753 938.852,501.086 939.5,499.5 Z"/></g>
<g><path style="opacity:0.977" fill="#ff8a64" d="M 1034.5,541.5 C 1049.62,541.405 1055.46,548.739 1052,563.5C 1050.5,567 1048,569.5 1044.5,571C 1028.36,573.522 1021.52,566.689 1024,550.5C 1026.46,546.198 1029.96,543.198 1034.5,541.5 Z"/></g>
</svg>
