<?xml version="1.0" encoding="UTF-8" standalone="yes"?>
<svg xmlns="http://www.w3.org/2000/svg" version="1.2" baseProfile="tiny-ps" viewBox="0 0 1080 1080" width="1080" height="1080" fill-rule="evenodd">
  <title>Sproutly Social logo</title>
  <desc>Word-mark “Sproutly Social.” Dark-grey text with a coral period.</desc>
  <path d="m272.5 211.5c145.335-.333 290.668 0 436 1 21.465 45.982 13.465 86.148-24 120.5-34.309 28.6-73.309 37.6-117 27-37.366-8.346-72.7-22.012-106-41-31.077-18.067-62.41-35.734-94-53-17.842-9.284-36.509-16.617-56-22-8.095-1.66-16.262-2.826-24.5-3.5-3.553.184-6.719 1.35-9.5 3.5-7.012 8.051-8.845 17.218-5.5 27.5 3.696 12.21 10.529 22.377 20.5 30.5 18.194 13.503 37.861 24.503 59 33 54.215 19.939 108.549 39.605 163 59 42.82 16.574 83.153 37.574 121 63 87.211 64.252 119.711 149.752 97.5 256.5-17.735 67.736-58.568 115.903-122.5 144.5-46.288 18.857-94.455 27.69-144.5 26.5-73.565 1.75-139.732-19.083-198.5-62.5-58.907-49.011-84.407-111.844-76.5-188.5 13.223-57.554 47.056-97.721 101.5-120.5-31.513-24.83-56.346-54.996-74.5-90.5-18.264-38.244-23.93-78.244-17-120 5.882-24.429 16.549-46.429 32-66 10.524-12.725 23.691-21.058 39.5-25zm40 318c34.936 24.483 71.27 46.983 109 67.5 55.027 27.322 109.027 56.322 162 87 9.333 6.667 18.667 13.333 28 20 15.967 12.805 28.467 28.305 37.5 46.5 11.131 36.207-1.369 60.041-37.5 71.5-30.173 4.806-59.173.806-87-12-28.72-13.411-54.72-30.744-78-52-52.404-49.3-92.571-107.134-120.5-173.5-7.075-17.721-11.575-36.054-13.5-55z" fill="#494949"/>
  <path d="m852.5 690.5c33.158-2.012 60.992 8.988 83.5 33 19.306 27.199 25.306 57.199 18 90-10.692 40.615-36.858 64.115-78.5 70.5-27.518 3.632-52.851-2.035-76-17-24.686-20.379-37.019-46.712-37-79 2.241-58.399 32.241-90.899 90-97.5z" fill="#ff8a64"/>
</svg>
